<svg viewBox="0 0 100 100" fill="none" xmlns="http://www.w3.org/2000/svg">
<g clip-path="url(#clip0_25_2030)">
<path fill-rule="evenodd" clip-rule="evenodd" d="M80.345 9.74262C80.345 14.888 76.3563 19.1018 71.3022 19.4605L68.0553 27.8528L80.3031 32.8442C81.9323 32.0033 83.9055 31.8535 85.7364 32.5997C89.0583 33.9535 90.6537 37.7438 89.2999 41.0657C87.9461 44.3876 84.1557 45.983 80.8339 44.6292C78.7864 43.7948 77.3948 42.0346 76.9454 40.0291L65.1969 35.2411L51.6387 70.286C46.5318 90.6545 59.1086 86.4622 71.6854 82.2699C69.743 81.2686 68.6853 80.6759 67.3554 79.0224C73.4226 78.0538 76.952 75.9236 83.5931 68.1973C84.6466 77.7885 82.6333 83.0009 74.933 92.0126C74.9895 90.0915 74.9714 90.0542 74.4794 89.0424C74.3224 88.7194 74.117 88.2971 73.8504 87.6825C67.3554 92.0126 56.5314 95.2596 46.7887 95.2596C41.0922 96.261 38.6844 97.4111 35.587 98.8906L35.587 98.8906C34.8539 99.2407 34.0823 99.6093 33.2193 99.9987C32.9282 100.13 32.5902 99.955 32.5293 99.6415C32.4329 99.1455 32.345 98.6736 32.2606 98.2205C31.4405 93.8172 30.9517 91.193 26.2217 85.517C18.2342 77.3995 14.9584 68.3763 15.3958 61.7017C14.8281 61.5609 14.3549 62.1833 13.6116 63.161C13.0071 63.9561 12.2239 64.9862 11.066 66.0318C10.541 56.7847 13.0916 50.2367 20.8084 43.299C20.1042 51.7794 21.1262 55.5 25.1384 60.6192C25.2214 60.6737 25.3044 60.7277 25.3855 60.7803C26.6939 61.6303 27.5003 62.1543 19.7258 59.5367C24.0099 73.4598 33.7422 80.6929 39.0408 71.7391L56.6984 31.7777L44.725 26.898C43.0018 28.0179 40.7765 28.3038 38.7292 27.4695C35.4073 26.1157 33.8119 22.3253 35.1657 19.0034C36.5195 15.6816 40.3098 14.0861 43.6317 15.4399C45.4628 16.1862 46.7693 17.6728 47.3465 19.4131L59.9011 24.5296L63.492 16.403C61.8595 14.6609 60.8598 12.3185 60.8598 9.74262C60.8598 4.36192 65.2217 0 70.6024 0C75.9831 0 80.345 4.36192 80.345 9.74262ZM66.8404 9.74262C66.8404 11.8203 68.5247 13.5047 70.6024 13.5047C72.6801 13.5047 74.3644 11.8203 74.3644 9.74262C74.3644 7.6649 72.6801 5.98058 70.6024 5.98058C68.5247 5.98058 66.8404 7.6649 66.8404 9.74262ZM74.7078 2.56174C67.4601 -0.000203013 62.1092 8.73909 63.705 12.9902C59.0514 6.00632 67.4613 -2.40276 74.7078 2.56174ZM44.2202 17.3184C41.9598 16.0595 35.0253 19.2189 36.6429 23.8135C33.824 19.2189 39.8307 13.2124 44.2202 17.3184ZM63.6881 21.8112L63.6172 21.975C54.9692 44.9568 49.6161 56.1555 44.0313 67.8393L44.031 67.8398L44.0271 67.848L44.0263 67.8496C43.1431 69.6973 42.2541 71.5572 41.3453 73.4778C46.0651 59.5446 50.9085 47.7931 63.6881 21.8112ZM12.8265 61.7031C10.9988 60.0647 12.8483 51.7143 19.409 45.6492C13.8483 53.4522 12.3034 60.0241 12.8265 61.7031Z" fill="#F7F6F6"/>
</g>
<defs>
<clipPath id="clip0_25_2030">
<rect width="100" height="100" fill="white"/>
</clipPath>
</defs>
</svg>
