<svg viewBox="0 0 100 100" fill="none" xmlns="http://www.w3.org/2000/svg">
<rect x="15.5249" y="13.6729" width="73.3945" height="52.4246" rx="8" fill="#1E2833"/>
<path d="M3.54731 82.0003C2.05835 83.9773 3.46873 86.8052 5.94366 86.8052H94.9359C97.1989 86.8052 98.6471 84.3951 97.5848 82.3969L91.7401 71.4032C90.0042 68.1381 86.6082 66.0974 82.9103 66.0974H20.5122C17.3717 66.0974 14.4137 67.5727 12.5243 70.0813L3.54731 82.0003Z" fill="#1E2833"/>
<path d="M18.6017 69.2044C18.6944 69.0648 18.8508 68.981 19.0183 68.981H22.2307C22.6221 68.981 22.8617 69.4103 22.6563 69.7434L21.495 71.6267C21.404 71.7744 21.2429 71.8643 21.0694 71.8643H17.7677C17.3687 71.8643 17.1304 71.4201 17.3511 71.0877L18.6017 69.2044Z" fill="#293945"/>
<path d="M23.8229 69.2065C23.9153 69.0657 24.0724 68.981 24.2408 68.981H27.7433C28.1329 68.981 28.3728 69.4069 28.1709 69.7401L27.0294 71.6235C26.9388 71.773 26.7767 71.8643 26.6018 71.8643H23.0043C22.6065 71.8643 22.368 71.4224 22.5863 71.0899L23.8229 69.2065Z" fill="#293945"/>
<path d="M29.0829 69.2333C29.1718 69.0773 29.3376 68.981 29.5172 68.981H32.8023C33.174 68.981 33.4158 69.3721 33.2495 69.7046L32.3079 71.5879C32.2232 71.7573 32.05 71.8643 31.8607 71.8643H28.4432C28.0595 71.8643 27.8188 71.45 28.0089 71.1166L29.0829 69.2333Z" fill="#293945"/>
<path d="M34.1148 69.2953C34.1907 69.1054 34.3746 68.981 34.579 68.981H38.1754C38.5123 68.981 38.7527 69.3073 38.653 69.629L38.0692 71.5124C38.0043 71.7216 37.8107 71.8643 37.5916 71.8643H33.8257C33.4719 71.8643 33.2301 71.5071 33.3614 71.1786L34.1148 69.2953Z" fill="#293945"/>
<path d="M39.6157 69.3367C39.6793 69.1255 39.8738 68.981 40.0944 68.981H43.7479C44.0636 68.981 44.3003 69.2699 44.2381 69.5795L43.8596 71.4628C43.8127 71.6963 43.6076 71.8643 43.3694 71.8643H39.5267C39.1915 71.8643 38.9512 71.541 39.048 71.22L39.6157 69.3367Z" fill="#293945"/>
<path d="M45.2266 69.4115C45.2612 69.1646 45.4724 68.981 45.7218 68.981H49.1008C49.3769 68.981 49.6008 69.2048 49.6008 69.481V71.3643C49.6008 71.6405 49.3769 71.8643 49.1008 71.8643H45.4576C45.1538 71.8643 44.9202 71.5957 44.9624 71.2949L45.2266 69.4115Z" fill="#293945"/>
<path d="M81.5695 69.1965C81.4761 69.0615 81.3224 68.981 81.1583 68.981H77.7771C77.3816 68.981 77.1427 69.4184 77.3564 69.7512L78.5661 71.6345C78.6581 71.7777 78.8166 71.8643 78.9868 71.8643H82.461C82.8642 71.8643 83.1016 71.4115 82.8722 71.0799L81.5695 69.1965Z" fill="#293945"/>
<path d="M76.2399 69.2143C76.1483 69.0691 75.9886 68.981 75.8169 68.981H72.4886C72.1029 68.981 71.8625 69.3991 72.0564 69.7324L73.1522 71.6158C73.2417 71.7696 73.4063 71.8643 73.5843 71.8643H77.004C77.3975 71.8643 77.6368 71.4307 77.427 71.0977L76.2399 69.2143Z" fill="#293945"/>
<path d="M70.9052 69.2333C70.8162 69.0773 70.6504 68.981 70.4708 68.981H67.2022C66.8266 68.981 66.5851 69.3797 66.7591 69.7126L67.7436 71.5959C67.8298 71.7609 68.0006 71.8643 68.1867 71.8643H71.5448C71.9285 71.8643 72.1692 71.45 71.9792 71.1166L70.9052 69.2333Z" fill="#293945"/>
<path d="M65.9228 69.3026C65.8488 69.1089 65.663 68.981 65.4557 68.981H62.0657C61.7315 68.981 61.4914 69.3024 61.5862 69.6228L62.1435 71.5062C62.2063 71.7186 62.4014 71.8643 62.6229 71.8643H66.1748C66.5251 71.8643 66.7669 71.5133 66.6419 71.186L65.9228 69.3026Z" fill="#293945"/>
<path d="M60.6343 69.3367C60.5707 69.1255 60.3762 68.981 60.1556 68.981H56.5021C56.1864 68.981 55.9497 69.2699 56.0119 69.5795L56.3904 71.4628C56.4373 71.6963 56.6424 71.8643 56.8806 71.8643H60.7233C61.0585 71.8643 61.2988 71.541 61.202 71.22L60.6343 69.3367Z" fill="#293945"/>
<path d="M55.0037 69.4077C54.9674 69.1625 54.757 68.981 54.5091 68.981H50.8871C50.6109 68.981 50.3871 69.2048 50.3871 69.481V71.3643C50.3871 71.6405 50.6109 71.8643 50.8871 71.8643H54.788C55.0933 71.8643 55.3273 71.5931 55.2826 71.2911L55.0037 69.4077Z" fill="#293945"/>
<rect x="18.8569" y="17.3457" width="67" height="46" rx="5" fill="#364256"/>
<path d="M18.6017 69.2044C18.6944 69.0648 18.8508 68.981 19.0183 68.981H22.2307C22.6221 68.981 22.8617 69.4103 22.6563 69.7434L21.495 71.6267C21.404 71.7744 21.2429 71.8643 21.0694 71.8643H17.7677C17.3687 71.8643 17.1304 71.4201 17.3511 71.0877L18.6017 69.2044Z" fill="#293945"/>
<path d="M23.8229 69.2065C23.9153 69.0657 24.0724 68.981 24.2408 68.981H27.7433C28.1329 68.981 28.3728 69.4069 28.1709 69.7401L27.0294 71.6235C26.9388 71.773 26.7767 71.8643 26.6018 71.8643H23.0043C22.6065 71.8643 22.368 71.4224 22.5863 71.0899L23.8229 69.2065Z" fill="#293945"/>
<path d="M29.0829 69.2333C29.1718 69.0773 29.3376 68.981 29.5172 68.981H32.8023C33.174 68.981 33.4158 69.3721 33.2495 69.7046L32.3079 71.5879C32.2232 71.7573 32.05 71.8643 31.8607 71.8643H28.4432C28.0595 71.8643 27.8188 71.45 28.0089 71.1166L29.0829 69.2333Z" fill="#293945"/>
<path d="M34.1148 69.2953C34.1907 69.1054 34.3746 68.981 34.579 68.981H38.1754C38.5123 68.981 38.7527 69.3073 38.653 69.629L38.0692 71.5124C38.0043 71.7216 37.8107 71.8643 37.5916 71.8643H33.8257C33.4719 71.8643 33.2301 71.5071 33.3614 71.1786L34.1148 69.2953Z" fill="#293945"/>
<path d="M39.6157 69.3367C39.6793 69.1255 39.8738 68.981 40.0944 68.981H43.7479C44.0636 68.981 44.3003 69.2699 44.2381 69.5795L43.8596 71.4628C43.8127 71.6963 43.6076 71.8643 43.3694 71.8643H39.5267C39.1915 71.8643 38.9512 71.541 39.048 71.22L39.6157 69.3367Z" fill="#293945"/>
<path d="M44.9841 69.4077C45.0204 69.1625 45.2308 68.981 45.4787 68.981H49.1007C49.3768 68.981 49.6007 69.2048 49.6007 69.481V71.3643C49.6007 71.6405 49.3768 71.8643 49.1007 71.8643H45.1998C44.8945 71.8643 44.6605 71.5931 44.7052 71.2911L44.9841 69.4077Z" fill="#293945"/>
<path d="M81.5695 69.1965C81.4761 69.0615 81.3224 68.981 81.1583 68.981H77.7771C77.3816 68.981 77.1427 69.4184 77.3564 69.7512L78.5661 71.6345C78.6581 71.7777 78.8166 71.8643 78.9868 71.8643H82.461C82.8642 71.8643 83.1016 71.4115 82.8722 71.0799L81.5695 69.1965Z" fill="#293945"/>
<path d="M76.2399 69.2143C76.1483 69.0691 75.9886 68.981 75.8169 68.981H72.4886C72.1029 68.981 71.8625 69.3991 72.0564 69.7324L73.1522 71.6158C73.2417 71.7696 73.4063 71.8643 73.5843 71.8643H77.004C77.3975 71.8643 77.6368 71.4307 77.427 71.0977L76.2399 69.2143Z" fill="#293945"/>
<path d="M70.9052 69.2333C70.8162 69.0773 70.6504 68.981 70.4708 68.981H67.2022C66.8266 68.981 66.5851 69.3797 66.7591 69.7126L67.7436 71.5959C67.8298 71.7609 68.0006 71.8643 68.1867 71.8643H71.5448C71.9285 71.8643 72.1692 71.45 71.9792 71.1166L70.9052 69.2333Z" fill="#293945"/>
<path d="M65.9228 69.3026C65.8488 69.1089 65.663 68.981 65.4557 68.981H62.0657C61.7315 68.981 61.4914 69.3024 61.5862 69.6228L62.1435 71.5062C62.2063 71.7186 62.4014 71.8643 62.6229 71.8643H66.1748C66.5251 71.8643 66.7669 71.5133 66.6419 71.186L65.9228 69.3026Z" fill="#293945"/>
<path d="M60.6343 69.3367C60.5707 69.1255 60.3762 68.981 60.1556 68.981H56.5021C56.1864 68.981 55.9497 69.2699 56.0119 69.5795L56.3904 71.4628C56.4373 71.6963 56.6424 71.8643 56.8806 71.8643H60.7233C61.0585 71.8643 61.2988 71.541 61.202 71.22L60.6343 69.3367Z" fill="#293945"/>
<path d="M55.0037 69.4077C54.9674 69.1625 54.757 68.981 54.5091 68.981H50.8871C50.6109 68.981 50.3871 69.2048 50.3871 69.481V71.3643C50.3871 71.6405 50.6109 71.8643 50.8871 71.8643H54.788C55.0933 71.8643 55.3273 71.5931 55.2826 71.2911L55.0037 69.4077Z" fill="#293945"/>
<path d="M16.0594 73.1282C16.1528 72.9932 16.3065 72.9126 16.4706 72.9126H19.8518C20.2473 72.9126 20.4862 73.35 20.2725 73.6828L19.0628 75.5662C18.9708 75.7094 18.8123 75.796 18.6421 75.796H15.1679C14.7647 75.796 14.5273 75.3432 14.7567 75.0115L16.0594 73.1282Z" fill="#293945"/>
<path d="M21.4638 73.1382C21.5562 72.9974 21.7133 72.9126 21.8817 72.9126H25.3841C25.7738 72.9126 26.0137 73.3385 25.8117 73.6717L24.6703 75.5551C24.5797 75.7046 24.4176 75.796 24.2427 75.796H20.6452C20.2474 75.796 20.0089 75.354 20.2272 75.0215L21.4638 73.1382Z" fill="#293945"/>
<path d="M26.9162 73.1732C27.0038 73.0125 27.1722 72.9126 27.3552 72.9126H30.4589C30.8268 72.9126 31.0687 73.2965 30.91 73.6283L30.0093 75.5117C29.9262 75.6854 29.7507 75.796 29.5582 75.796H26.3279C25.9483 75.796 25.7072 75.3897 25.8889 75.0565L26.9162 73.1732Z" fill="#293945"/>
<path d="M31.7556 73.2269C31.8316 73.0371 32.0154 72.9126 32.2199 72.9126H35.8163C36.1531 72.9126 36.3936 73.2389 36.2939 73.5606L35.7101 75.444C35.6452 75.6533 35.4516 75.796 35.2325 75.796H31.4665C31.1128 75.796 30.8709 75.4387 31.0023 75.1103L31.7556 73.2269Z" fill="#293945"/>
<path d="M37.2566 73.2683C37.3202 73.0571 37.5147 72.9126 37.7353 72.9126H41.3887C41.7045 72.9126 41.9411 73.2016 41.8789 73.5111L41.5005 75.3945C41.4535 75.628 41.2484 75.796 41.0103 75.796H37.1676C36.8324 75.796 36.5921 75.4726 36.6888 75.1516L37.2566 73.2683Z" fill="#293945"/>
<path d="M42.6252 73.3394C42.6615 73.0942 42.8719 72.9126 43.1198 72.9126H46.7418C47.018 72.9126 47.2418 73.1365 47.2418 73.4126V75.296C47.2418 75.5721 47.018 75.796 46.7418 75.796H42.841C42.5357 75.796 42.3016 75.5247 42.3463 75.2227L42.6252 73.3394Z" fill="#293945"/>
<path d="M79.2104 73.1282C79.117 72.9932 78.9633 72.9126 78.7991 72.9126H75.418C75.0225 72.9126 74.7836 73.35 74.9973 73.6828L76.2069 75.5662C76.2989 75.7094 76.4574 75.796 76.6276 75.796H80.1019C80.5051 75.796 80.7425 75.3432 80.5131 75.0115L79.2104 73.1282Z" fill="#293945"/>
<path d="M87.1866 73.1142C87.0923 72.9873 86.9435 72.9126 86.7854 72.9126H80.925C80.529 72.9126 80.2902 73.3511 80.505 73.6838L81.7208 75.5671C81.8129 75.7098 81.9711 75.796 82.1409 75.796H88.1863C88.5974 75.796 88.8329 75.3274 88.5875 74.9975L87.1866 73.1142Z" fill="#293945"/>
<path d="M73.806 73.1382C73.7136 72.9974 73.5565 72.9126 73.3881 72.9126H69.8856C69.496 72.9126 69.2561 73.3385 69.458 73.6717L70.5995 75.5551C70.6901 75.7046 70.8522 75.796 71.0271 75.796H74.6246C75.0224 75.796 75.2609 75.354 75.0426 75.0215L73.806 73.1382Z" fill="#293945"/>
<path d="M68.546 73.1649C68.4571 73.0089 68.2913 72.9126 68.1117 72.9126H64.8431C64.4675 72.9126 64.226 73.3113 64.4 73.6442L65.3845 75.5276C65.4707 75.6925 65.6414 75.796 65.8276 75.796H69.1857C69.5694 75.796 69.8101 75.3816 69.62 75.0483L68.546 73.1649Z" fill="#293945"/>
<path d="M63.5141 73.2269C63.4382 73.0371 63.2544 72.9126 63.0499 72.9126H59.4535C59.1167 72.9126 58.8762 73.2389 58.9759 73.5606L59.5597 75.444C59.6246 75.6533 59.8182 75.796 60.0373 75.796H63.8032C64.157 75.796 64.3988 75.4387 64.2675 75.1103L63.5141 73.2269Z" fill="#293945"/>
<path d="M58.0513 73.2746C57.9898 73.0603 57.7937 72.9126 57.5707 72.9126H54.1375C53.8236 72.9126 53.5874 73.1983 53.6464 73.5066L54.0068 75.3899C54.0519 75.6256 54.258 75.796 54.4979 75.796H58.1114C58.4439 75.796 58.6837 75.4775 58.592 75.158L58.0513 73.2746Z" fill="#293945"/>
<path d="M52.6448 73.3394C52.6085 73.0942 52.3981 72.9126 52.1502 72.9126H48.5282C48.2521 72.9126 48.0282 73.1365 48.0282 73.4126V75.296C48.0282 75.5721 48.2521 75.796 48.5282 75.796H52.4291C52.7344 75.796 52.9684 75.5247 52.9237 75.2227L52.6448 73.3394Z" fill="#293945"/>
<path d="M17.108 76.7981C17.2014 76.6631 17.3551 76.5825 17.5192 76.5825H20.9004C21.2959 76.5825 21.5348 77.02 21.3211 77.3527L20.1114 79.2361C20.0194 79.3793 19.8609 79.4659 19.6907 79.4659H16.2165C15.8133 79.4659 15.5759 79.0131 15.8053 78.6814L17.108 76.7981Z" fill="#293945"/>
<path d="M22.5123 76.8081C22.6048 76.6673 22.7619 76.5825 22.9303 76.5825H26.4327C26.8224 76.5825 27.0623 77.0085 26.8603 77.3417L25.7189 79.225C25.6283 79.3745 25.4661 79.4659 25.2913 79.4659H21.6938C21.296 79.4659 21.0575 79.024 21.2758 78.6915L22.5123 76.8081Z" fill="#293945"/>
<path d="M27.7721 76.8348C27.861 76.6788 28.0268 76.5825 28.2064 76.5825H31.4915C31.8632 76.5825 32.105 76.9737 31.9388 77.3061L30.9971 79.1895C30.9124 79.3589 30.7393 79.4659 30.5499 79.4659H27.1324C26.7487 79.4659 26.508 79.0515 26.6981 78.7182L27.7721 76.8348Z" fill="#293945"/>
<path d="M32.8537 76.8896C32.9315 76.7036 33.1134 76.5825 33.315 76.5825H37.1176C37.4571 76.5825 37.6979 76.9137 37.5932 77.2367L36.9829 79.12C36.9161 79.3262 36.724 79.4659 36.5072 79.4659H32.5274C32.1703 79.4659 31.9284 79.1024 32.0661 78.773L32.8537 76.8896Z" fill="#293945"/>
<path d="M38.3434 76.932C38.4091 76.7239 38.602 76.5825 38.8202 76.5825H42.6937C43.0113 76.5825 43.2484 76.8748 43.183 77.1855L42.7865 79.0689C42.7378 79.3003 42.5336 79.4659 42.2972 79.4659H38.2254C37.8875 79.4659 37.6469 79.1376 37.7487 78.8153L38.3434 76.932Z" fill="#293945"/>
<path d="M43.9161 77.0131C43.9507 76.7662 44.1619 76.5825 44.4112 76.5825H47.7902C48.0664 76.5825 48.2902 76.8064 48.2902 77.0825V78.9659C48.2902 79.242 48.0664 79.4659 47.7902 79.4659H44.147C43.8433 79.4659 43.6097 79.1972 43.6519 78.8964L43.9161 77.0131Z" fill="#293945"/>
<path d="M82.88 77.322C82.7867 77.187 82.633 77.1064 82.4688 77.1064H79.0877C78.6922 77.1064 78.4532 77.5439 78.667 77.8767L79.8766 79.76C79.9686 79.9032 80.1271 79.9898 80.2973 79.9898H83.7715C84.1748 79.9898 84.4121 79.537 84.1827 79.2054L82.88 77.322Z" fill="#293945"/>
<path d="M74.9293 76.8159C74.8378 76.6706 74.6781 76.5825 74.5063 76.5825H71.178C70.7924 76.5825 70.5519 77.0006 70.7459 77.334L71.8416 79.2173C71.9312 79.3712 72.0958 79.4659 72.2738 79.4659H75.6934C76.087 79.4659 76.3263 79.0322 76.1164 78.6993L74.9293 76.8159Z" fill="#293945"/>
<path d="M69.5946 76.8348C69.5057 76.6788 69.3399 76.5825 69.1603 76.5825H65.8917C65.5161 76.5825 65.2746 76.9812 65.4486 77.3141L66.4331 79.1975C66.5193 79.3625 66.69 79.4659 66.8762 79.4659H70.2343C70.618 79.4659 70.8587 79.0515 70.6686 78.7182L69.5946 76.8348Z" fill="#293945"/>
<path d="M64.5627 76.8968C64.4868 76.707 64.3029 76.5825 64.0985 76.5825H60.5021C60.1652 76.5825 59.9248 76.9088 60.0245 77.2306L60.6083 79.1139C60.6732 79.3232 60.8667 79.4659 61.0859 79.4659H64.8518C65.2056 79.4659 65.4474 79.1086 65.3161 78.7802L64.5627 76.8968Z" fill="#293945"/>
<path d="M59.0997 76.9446C59.0381 76.7302 58.8421 76.5825 58.6191 76.5825H55.1858C54.872 76.5825 54.6357 76.8683 54.6947 77.1765L55.0552 79.0599C55.1003 79.2955 55.3063 79.4659 55.5462 79.4659H59.1597C59.4922 79.4659 59.7321 79.1475 59.6403 78.8279L59.0997 76.9446Z" fill="#293945"/>
<path d="M53.6932 77.0093C53.6569 76.7641 53.4464 76.5825 53.1986 76.5825H49.5765C49.3004 76.5825 49.0765 76.8064 49.0765 77.0825V78.9659C49.0765 79.242 49.3004 79.4659 49.5765 79.4659H53.4774C53.7827 79.4659 54.0167 79.1947 53.972 78.8926L53.6932 77.0093Z" fill="#293945"/>
<path d="M13.4383 80.9919C13.5317 80.8569 13.6854 80.7764 13.8495 80.7764H17.2307C17.6262 80.7764 17.8651 81.2138 17.6514 81.5466L16.4417 83.4299C16.3498 83.5731 16.1912 83.6597 16.021 83.6597H12.5468C12.1436 83.6597 11.9062 83.2069 12.1356 82.8753L13.4383 80.9919Z" fill="#293945"/>
<path d="M18.7677 81.0098C18.8593 80.8645 19.019 80.7764 19.1907 80.7764H22.519C22.9046 80.7764 23.1451 81.1945 22.9512 81.5278L21.8554 83.4112C21.7659 83.5651 21.6013 83.6597 21.4232 83.6597H18.0036C17.61 83.6597 17.3707 83.2261 17.5806 82.8931L18.7677 81.0098Z" fill="#293945"/>
<path d="M24.2348 81.0138C24.3259 80.8662 24.4869 80.7764 24.6603 80.7764H29.153C29.5197 80.7764 29.7616 81.1579 29.6053 81.4896L28.7175 83.3729C28.635 83.548 28.4588 83.6597 28.2653 83.6597H23.4981C23.1067 83.6597 22.8671 83.2303 23.0726 82.8972L24.2348 81.0138Z" fill="#293945"/>
<path d="M30.6575 81.098C30.7315 80.9043 30.9173 80.7764 31.1246 80.7764H34.5147C34.8488 80.7764 35.0889 81.0978 34.9941 81.4182L34.4369 83.3016C34.374 83.514 34.1789 83.6597 33.9574 83.6597H30.4056C30.0552 83.6597 29.8135 83.3087 29.9384 82.9814L30.6575 81.098Z" fill="#293945"/>
<path d="M35.8896 81.1415C35.9501 80.9256 36.1468 80.7764 36.371 80.7764H59.5235C59.7547 80.7764 59.9557 80.9348 60.0097 81.1596L60.4619 83.043C60.5374 83.3574 60.2991 83.6597 59.9758 83.6597H35.8434C35.5123 83.6597 35.2726 83.3437 35.3619 83.0248L35.8896 81.1415Z" fill="#293945"/>
<path d="M90.2194 80.9919C90.126 80.8569 89.9723 80.7764 89.8082 80.7764H86.427C86.0315 80.7764 85.7926 81.2138 86.0063 81.5466L87.216 83.4299C87.308 83.5731 87.4665 83.6597 87.6367 83.6597H91.1109C91.5141 83.6597 91.7515 83.2069 91.5221 82.8753L90.2194 80.9919Z" fill="#293945"/>
<path d="M84.89 81.0098C84.7985 80.8645 84.6388 80.7764 84.467 80.7764H81.1387C80.7531 80.7764 80.5126 81.1945 80.7066 81.5278L81.8023 83.4112C81.8919 83.5651 82.0565 83.6597 82.2345 83.6597H85.6541C86.0477 83.6597 86.287 83.2261 86.0771 82.8931L84.89 81.0098Z" fill="#293945"/>
<path d="M79.5553 81.0287C79.4664 80.8727 79.3006 80.7764 79.121 80.7764H75.8524C75.4767 80.7764 75.2353 81.1751 75.4093 81.508L76.3938 83.3914C76.48 83.5563 76.6507 83.6597 76.8369 83.6597H80.195C80.5787 83.6597 80.8194 83.2454 80.6293 82.912L79.5553 81.0287Z" fill="#293945"/>
<path d="M73.4748 81.0907C73.3989 80.9008 73.215 80.7764 73.0106 80.7764H66.6619C66.3251 80.7764 66.0846 81.1027 66.1843 81.4244L66.7681 83.3078C66.833 83.5171 67.0266 83.6597 67.2457 83.6597H73.7639C74.1177 83.6597 74.3595 83.3025 74.2282 82.974L73.4748 81.0907Z" fill="#293945"/>
<path d="M65.3907 81.1384C65.3291 80.9241 65.1331 80.7764 64.9101 80.7764H61.4768C61.163 80.7764 60.9267 81.0621 60.9857 81.3704L61.3462 83.2537C61.3913 83.4893 61.5974 83.6597 61.8373 83.6597H65.4508C65.7832 83.6597 66.0231 83.3413 65.9314 83.0218L65.3907 81.1384Z" fill="#293945"/>
</svg>
