<svg viewBox="0 0 100 100" fill="none" xmlns="http://www.w3.org/2000/svg">
<path d="M90 98L10 98C5.58172 98 2 94.4183 2 90L2.00001 9.99999C2.00001 5.58171 5.58173 1.99999 10 1.99999L90 1.99999C94.4183 1.99999 98 5.58171 98 9.99999L98 65.358L81.9623 49.1502C80.3077 47.4781 77.5745 47.5878 76.0593 49.3871L62.9145 64.9966L40.6841 41.4586C38.9154 39.5859 35.8636 39.8488 34.4412 41.9963L12.3887 75.2912C10.6276 77.9502 12.5342 81.5 15.7236 81.5L95 81.5C96.6569 81.5 98 82.8431 98 84.5L98 90C98 94.4183 94.4183 98 90 98Z" stroke="white" stroke-width="4" stroke-linecap="round"/>
<path d="M73.5664 36.311C71.4402 37.7681 68.9155 38.5323 66.3382 38.499C63.7608 38.4656 61.2568 37.6363 59.169 36.1246C57.0813 34.6129 55.5119 32.4928 54.6759 30.0546C53.8398 27.6164 53.7779 24.9793 54.4987 22.5046C55.2194 20.0298 56.6876 17.8384 58.7022 16.2305C60.7167 14.6225 63.1791 13.6766 65.752 13.5224C68.325 13.3682 70.8827 14.0131 73.0749 15.3689C75.2671 16.7247 76.9866 18.725 77.9978 21.0959" stroke="white" stroke-width="4" stroke-linecap="round"/>
</svg>
