<svg viewBox="0 0 100 100" fill="none" xmlns="http://www.w3.org/2000/svg">
<path d="M30.865 91.1993C30.7201 90.7382 30.8174 90.2354 31.1238 89.8609L36.5189 83.2693C36.659 83.0981 36.8368 82.9614 37.0385 82.8697L61.7697 71.6363C62.5181 71.2964 63.3998 71.6477 63.7067 72.408L68.6093 84.5538C68.7434 84.886 68.7483 85.2561 68.623 85.5917L65.0873 95.0635C64.8753 95.6314 64.3289 96.0059 63.7209 95.9999L33.3263 95.703C32.7008 95.6969 32.1504 95.2898 31.9635 94.6949L30.865 91.1993Z" fill="black"/>
<path d="M81.8998 56.5533C82.1043 56.2477 82.5342 56.196 82.8057 56.4444C83.0261 56.6461 83.0638 56.9788 82.8942 57.2244L72.424 72.3865L63.8944 85.6713C62.8347 87.3218 60.2725 86.214 60.7582 84.3153C60.8267 84.0474 60.9589 83.7999 61.1434 83.5935L71.7345 71.7523L81.8998 56.5533Z" fill="black"/>
<path d="M52.6777 5.15023C52.6777 4.51497 53.1945 4 53.832 4C54.4695 4 54.9863 4.51497 54.9863 5.15022V77.0393C54.9863 77.6745 54.4695 78.1895 53.832 78.1895C53.1945 78.1895 52.6777 77.6745 52.6777 77.0393V5.15023Z" fill="black"/>
<path d="M77.3257 52.137C77.7107 52.2493 77.9511 52.6564 77.8627 53.0463C77.7743 53.4362 77.3905 53.6613 77.0055 53.549L21.7407 37.4302C21.3557 37.3179 21.1153 36.9108 21.2037 36.5209C21.2921 36.131 21.6759 35.9059 22.0609 36.0182L77.3257 52.137Z" fill="black"/>
<path d="M78.5912 68.3194C78.9299 68.3643 79.1678 68.6743 79.1227 69.0118C79.0776 69.3493 78.7665 69.5864 78.4278 69.5414L17.537 61.4587C17.1983 61.4138 16.9604 61.1038 17.0055 60.7663C17.0506 60.4288 17.3617 60.1917 17.7004 60.2367L78.5912 68.3194Z" fill="black"/>
<path d="M72.5899 16.6595C72.9372 16.7485 73.1463 17.1012 73.057 17.4472C72.9677 17.7933 72.6137 18.0017 72.2665 17.9127L35.8692 8.58524C35.5219 8.49625 35.3128 8.14356 35.4021 7.79749C35.4914 7.45143 35.8453 7.24303 36.1926 7.33203L72.5899 16.6595Z" fill="black"/>
<path d="M75.0203 30.9188C75.3676 31.0078 75.5767 31.3605 75.4874 31.7065C75.3981 32.0526 75.0442 32.261 74.6969 32.172L31.0077 20.9758C30.6605 20.8868 30.4513 20.5342 30.5406 20.1881C30.6299 19.842 30.9839 19.6336 31.3311 19.7226L75.0203 30.9188Z" fill="black"/>
<path d="M48.638 31.8929C48.638 31.4165 49.0256 31.0303 49.5037 31.0303C49.9818 31.0303 50.3694 31.4165 50.3694 31.8929V80.2024C50.3694 80.6788 49.9818 81.065 49.5037 81.065C49.0256 81.065 48.638 80.6788 48.638 80.2024V31.8929Z" fill="black"/>
<path d="M36.1492 7.40528L50.4684 11.2104C51.98 15.5861 53.7697 22.2264 49.726 24.8983C42.996 18.9721 39.1369 18.6864 32.9141 20.776C36.9795 18.9767 38.4512 13.6107 36.1492 7.40528Z" fill="black"/>
<path d="M55.825 12.9017L72.5839 17.0768C74.3546 21.8897 76.2929 28.5517 71.8944 30.7118C65.4748 25.6165 61.5257 24.4767 55.0825 26.3253C58.6678 24.1999 57.7879 18.2472 55.825 12.9017Z" fill="black"/>
<path d="M22.9684 37.0375L44.3942 42.9922C45.9956 46.7741 51.3614 58.1732 45.9069 64.2476C36.8759 59.4399 25.4825 56.9502 19.8671 60.8125C26.4147 54.9856 27.3678 44.2379 22.9684 37.0375Z" fill="black"/>
<path d="M56.115 46.4808L76.321 52.7963C77.1319 60.9999 79.1319 64.626 76.321 68.4755C63.0774 61.3407 59.6221 64.0077 54.8168 65.4632C60.6662 62.5525 59.6009 54.7407 56.115 46.4808Z" fill="black"/>
<path d="M31.133 20.0472L49.5664 24.8753C50.8959 28.994 54.1353 40.9571 49.5664 44.4822C44.5798 40.218 33.1105 34.1607 25.9661 37.9818C31.6477 34.7011 34.8057 27.1631 31.133 20.0472Z" fill="black"/>
<path d="M55.9816 26.5665L74.6516 31.6928C77.6395 38.6767 81.1546 47.0876 76.1876 52.1453C64.3833 44.2793 62.5248 44.3696 56.5139 46.4377C61.0675 40.6541 58.0302 32.399 55.9816 26.5665Z" fill="black"/>
</svg>
